<?xml version="1.0" encoding="UTF-8"?>
<svg version="1.1" xmlns="http://www.w3.org/2000/svg" width="600" height="600">
<path d="M0 0 C10.59917066 8.31893365 16.68998687 17.97366535 18.7734375 31.41015625 C18.96337316 34.52444611 18.91246775 37.39212086 18.7265625 40.49609375 C17.64039862 50.83140492 17.64039862 50.83140492 21.23046875 60.00390625 C24.08941131 61.98401565 24.08941131 61.98401565 27.1640625 63.55078125 C31.64503516 66.03815313 33.68603683 69.67081834 36 74.125 C36.32613281 74.74890625 36.65226562 75.3728125 36.98828125 76.015625 C41.66946209 86.576014 40.3596035 98.41091902 37 109.125 C32.30771653 120.99038145 25.24312942 129.91376067 14 136.125 C1.48981642 141.5137576 -11.19277677 141.67867937 -24 137.125 C-27.12379718 135.6340968 -30.08395639 133.98802786 -33 132.125 C-33.8353125 133.19427734 -33.8353125 133.19427734 -34.6875 134.28515625 C-44.49929468 146.59962153 -56.80639318 157.60757549 -73.2265625 159.49609375 C-82.70282231 159.68126205 -89.91859199 157.70095902 -98.0859375 152.8984375 C-100.53935984 151.9070546 -101.55685806 152.1716956 -104 153.125 C-106.0021958 154.28821902 -107.88871051 155.57179761 -109.8046875 156.87109375 C-114.77059299 159.70749172 -118.98855187 160.24521038 -124.57299805 160.1472168 C-132.06936331 159.92709105 -132.06936331 159.92709105 -138.484375 163.19921875 C-140.16253815 165.77419845 -141.57538926 168.40378703 -143 171.125 C-147.72189345 176.71826531 -153.88540603 179.73543087 -161 181.125 C-168.9906543 181.74108616 -177.34693705 181.96737819 -185.17578125 180.16796875 C-189.39213574 180.12059398 -189.75980808 180.294353 -192.609375 183.0546875 C-193.77176969 184.38398677 -194.90175014 185.74223277 -196 187.125 C-196.53560547 187.78532227 -197.07121094 188.44564453 -197.62304688 189.12597656 C-199.20782179 191.13877783 -200.73492422 193.18434256 -202.25 195.25 C-202.765625 195.93964844 -203.28125 196.62929688 -203.8125 197.33984375 C-206.40653816 200.83644673 -208.845923 204.33323431 -211 208.125 C-209.35 208.455 -207.7 208.785 -206 209.125 C-205.67 218.695 -205.34 228.265 -205 238.125 C-182.23 238.125 -159.46 238.125 -136 238.125 C-135.67 235.815 -135.34 233.505 -135 231.125 C-132.05067446 225.48573586 -127.39430104 220.5800019 -121.2421875 218.54296875 C-112.12431571 216.84329579 -103.00728328 217.30103606 -95.140625 222.30859375 C-89.44428768 226.60519006 -88.49005208 230.14489584 -85 237.125 C-57.61 237.455 -30.22 237.785 -2 238.125 C-2 228.555 -2 218.985 -2 209.125 C38.92 209.125 79.84 209.125 122 209.125 C122 217.045 122 224.965 122 233.125 C113 237.125 113 237.125 111 237.125 C110.566875 237.99125 110.566875 237.99125 110.125 238.875 C109 241.125 109 241.125 107.94140625 242.7956543 C106.618303 246.0694427 106.75128081 249.17164906 106.8125 252.64453125 C106.81967041 253.45106644 106.82684082 254.25760162 106.83422852 255.08857727 C107.00605184 269.19996541 107.49613222 283.31002129 107.92712402 297.41540527 C108.07156426 302.1664488 108.21172153 306.91762053 108.35263062 311.66876984 C108.56521208 318.82094773 108.78309503 325.97294606 109 333.125 C127.48 333.125 145.96 333.125 165 333.125 C165 345.005 165 356.885 165 369.125 C144.21 369.125 123.42 369.125 102 369.125 C100.515 374.075 100.515 374.075 99 379.125 C94.56907882 387.59655396 87.54850831 394.85074585 79 399.125 C141.37 399.62 141.37 399.62 205 400.125 C205 405.735 205 411.345 205 417.125 C11.62 417.125 -181.76 417.125 -381 417.125 C-381 411.515 -381 405.905 -381 400.125 C-333.48 399.63 -333.48 399.63 -285 399.125 C-288.3 397.475 -291.6 395.825 -295 394.125 C-303.5620427 388.02998655 -308.13323349 380.1586828 -311 370.125 C-320.24 370.125 -329.48 370.125 -339 370.125 C-339.02290896 365.01630189 -339.04283601 359.90778074 -339.05493164 354.79907227 C-339.05997204 353.05980832 -339.0668043 351.32054864 -339.07543945 349.58129883 C-339.08751792 347.08674063 -339.09323108 344.59223827 -339.09765625 342.09765625 C-339.10281754 341.31536148 -339.10797882 340.53306671 -339.11329651 339.72706604 C-339.11349226 337.85932886 -339.06199694 335.99170796 -339 334.125 C-338 333.125 -338 333.125 -336.17137146 333.00474548 C-335.37417191 333.00696609 -334.57697235 333.00918671 -333.75561523 333.01147461 C-332.85475693 333.01155014 -331.95389862 333.01162567 -331.02574158 333.01170349 C-330.04658279 333.01686478 -329.06742401 333.02202606 -328.05859375 333.02734375 C-327.06118668 333.0287587 -326.0637796 333.03017365 -325.03614807 333.03163147 C-321.83656876 333.03724886 -318.63705831 333.04980429 -315.4375 333.0625 C-313.27408955 333.06751276 -311.11067801 333.07207605 -308.94726562 333.07617188 C-303.63148675 333.08722393 -298.31574829 333.10397896 -293 333.125 C-292.71012207 332.21476074 -292.42024414 331.30452148 -292.12158203 330.36669922 C-291.23955412 327.81738128 -290.33506829 325.61206105 -289.0546875 323.2578125 C-288.73483887 322.66371582 -288.41499023 322.06961914 -288.08544922 321.45751953 C-287.68600098 320.72903809 -287.28655273 320.00055664 -286.875 319.25 C-284.956875 315.723125 -284.956875 315.723125 -283 312.125 C-290.26 311.795 -297.52 311.465 -305 311.125 C-313.93016514 288.79958715 -314.64057204 265.54124488 -305.8125 242.9375 C-304.24375 239.36875 -304.24375 239.36875 -303 238.125 C-301.52645652 238.03195982 -300.04849409 238.00753735 -298.57202148 238.01147461 C-297.63112167 238.01155014 -296.69022186 238.01162567 -295.72080994 238.01170349 C-294.69790359 238.01686478 -293.67499725 238.02202606 -292.62109375 238.02734375 C-291.058395 238.02946617 -291.058395 238.02946617 -289.46412659 238.03163147 C-286.12188906 238.0372492 -282.77971743 238.0498047 -279.4375 238.0625 C-277.17773534 238.06751272 -274.91796963 238.07207602 -272.65820312 238.07617188 C-267.10542266 238.08637544 -261.55278548 238.10594736 -256 238.125 C-256 228.555 -256 218.985 -256 209.125 C-253.69 208.795 -251.38 208.465 -249 208.125 C-249.495 207.2175 -249.99 206.31 -250.5 205.375 C-253.23631063 198.95118505 -252.99167261 191.26237506 -250.8125 184.6875 C-247.45283275 178.0840161 -241.87685543 174.36858543 -236 170.125 C-236.2165625 168.2378125 -236.2165625 168.2378125 -236.4375 166.3125 C-236.51871094 165.60480469 -236.59992188 164.89710938 -236.68359375 164.16796875 C-236.97170735 161.93103607 -236.97170735 161.93103607 -238 159.125 C-237.93058522 144.46112855 -236.83913051 128.44846643 -226.2890625 117.3203125 C-215.58817531 108.24487653 -201.28437466 108.1803752 -188 109.125 C-185.99358955 109.41728104 -183.9891895 109.73227077 -182 110.125 C-182.04640625 109.31417969 -182.0928125 108.50335938 -182.140625 107.66796875 C-182.49560476 96.77769683 -180.86129073 89.03425019 -173.625 80.6875 C-166.62095382 73.47812347 -159.18141926 69.20910228 -149.01953125 68.69140625 C-147.28399655 68.66913677 -145.54807236 68.66838895 -143.8125 68.6875 C-142.89992432 68.68999756 -141.98734863 68.69249512 -141.04711914 68.69506836 C-134.10878095 68.83247933 -128.26417243 69.98989793 -121.71484375 72.34765625 C-118.84414656 73.16962566 -117.69099273 73.34817851 -115 72.125 C-113.16670684 70.54186557 -113.16670684 70.54186557 -111.5 68.625 C-109.09282508 65.95522418 -107.59134067 64.69205379 -104 64.125 C-104.16081055 63.40513916 -104.32162109 62.68527832 -104.48730469 61.94360352 C-107.51952247 45.27362526 -105.5273659 27.28112972 -96 13.125 C-72.8457662 -16.61358277 -30.82057092 -21.4605617 0 0 Z M-9 369.125 C-10.65 373.415 -12.3 377.705 -14 382.125 C-19.51788481 390.50794039 -26.0571587 396.57555351 -36 399.125 C-36 399.455 -36 399.785 -36 400.125 C-7.95 400.125 20.1 400.125 49 400.125 C47.03284195 398.15784195 45.67031902 397.39883787 43.1875 396.25 C31.49884219 390.44771663 27.28413825 380.75010415 22 369.125 C11.77 369.125 1.54 369.125 -9 369.125 Z M-231 370.125 C-231.27972656 370.95902344 -231.55945313 371.79304688 -231.84765625 372.65234375 C-236.28791237 385.11647107 -241.3232269 391.89874861 -253 398.125 C-253.99 398.785 -254.98 399.445 -256 400.125 C-229.6 400.125 -203.2 400.125 -176 400.125 C-178.94335603 397.915755 -178.94335603 397.915755 -181.9296875 395.765625 C-190.93401957 389.32879324 -196.4794303 381.68670911 -200 371.125 C-210.33938394 370.51934571 -220.6374817 369.93884698 -231 370.125 Z M-120 370.125 C-121.65 374.085 -123.3 378.045 -125 382.125 C-130.00877289 389.74704569 -135.5545904 395.4172592 -144 399.125 C-144 399.455 -144 399.785 -144 400.125 C-117.6 400.125 -91.2 400.125 -64 400.125 C-66.43031167 397.69468833 -68.93480985 396.65042424 -72.02734375 395.22265625 C-74.06773009 394.08731257 -75.36135172 392.76364828 -77 391.125 C-77.66 391.125 -78.32 391.125 -79 391.125 C-79.25910156 390.57585937 -79.51820313 390.02671875 -79.78515625 389.4609375 C-81.6857774 385.80636693 -83.99766501 382.42447698 -86.24609375 378.9765625 C-88.00070773 376.12384934 -89.50222548 373.12054904 -91 370.125 C-100.57 370.125 -110.14 370.125 -120 370.125 Z " fill="#000000" transform="translate(388,97.875)"/>
</svg>
